<?xml version="1.0" standalone="no"?>
<!DOCTYPE svg PUBLIC "-//W3C//DTD SVG 20010904//EN"
 "http://www.w3.org/TR/2001/REC-SVG-20010904/DTD/svg10.dtd">
<svg version="1.0" xmlns="http://www.w3.org/2000/svg"
 width="260.000000pt" height="260.000000pt" viewBox="0 0 260.000000 260.000000"
 preserveAspectRatio="xMidYMid meet">
<metadata>
Created by potrace 1.11, written by Peter Selinger 2001-2013
</metadata>
<g transform="translate(0.000000,260.000000) scale(0.100000,-0.100000)"
fill="#000000" stroke="none">
<path d="M0 1300 l0 -1300 1300 0 1300 0 0 1300 0 1300 -1300 0 -1300 0 0
-1300z m1312 978 c14 -12 138 -223 138 -236 0 -3 7 -13 16 -23 31 -34 9 -39
-166 -39 -182 0 -197 5 -162 52 9 13 23 34 31 48 56 98 84 149 97 178 16 35
23 38 46 20z m155 -369 c8 -8 -11 -49 -68 -147 -68 -117 -103 -164 -113 -150
-2 1 -17 28 -33 58 -66 117 -76 136 -94 165 -29 46 -32 54 -25 70 4 12 32 15
164 15 101 0 162 -4 169 -11z m90 -46 c4 -10 38 -72 75 -137 38 -66 70 -129
71 -140 2 -21 -2 -21 -168 -21 -197 0 -190 -6 -125 105 20 36 56 98 79 138 43
74 57 85 68 55z m-470 -10 c4 -10 37 -71 75 -135 37 -64 68 -126 68 -137 0
-20 -5 -21 -171 -21 l-171 0 6 27 c6 22 93 182 142 261 17 26 42 29 51 5z
m141 -351 c13 -9 7 -34 -17 -72 -30 -47 -114 -198 -122 -217 -18 -47 -28 -35
-131 146 -57 98 -74 137 -65 143 16 10 318 10 335 0z m466 2 c9 -3 16 -10 16
-16 0 -15 -162 -298 -170 -298 -10 0 -24 17 -49 63 -38 67 -63 111 -82 142
-38 63 -50 98 -37 107 15 9 299 11 322 2z m-852 -61 c21 -24 158 -270 158
-283 0 -6 -60 -10 -170 -10 -144 0 -172 2 -177 15 -3 9 1 23 9 33 15 17 88
143 128 220 25 47 30 50 52 25z m959 -13 c5 -8 40 -70 79 -137 38 -68 70 -127
70 -133 0 -6 -63 -10 -175 -10 -167 0 -175 1 -175 19 0 11 4 22 9 26 6 3 16
18 24 33 8 15 31 56 51 92 20 36 44 80 53 98 18 35 48 41 64 12z m-811 -350
c16 -10 19 -3 -43 -110 -11 -19 -31 -55 -45 -80 -50 -91 -65 -111 -79 -108 -8
2 -27 26 -42 53 -16 28 -41 73 -56 100 -15 28 -39 67 -52 87 -42 62 -29 68
151 68 83 0 158 -5 166 -10z m957 -5 c3 -9 -2 -24 -11 -34 -9 -10 -16 -21 -16
-24 0 -4 -30 -59 -67 -122 -44 -77 -71 -115 -81 -113 -15 3 -23 15 -80 118
-13 25 -40 71 -59 103 -19 32 -32 64 -29 72 8 23 334 22 343 0z m-1332 -56 c4
-12 39 -76 77 -141 38 -66 68 -127 66 -135 -3 -13 -27 -15 -173 -15 -93 0
-171 5 -172 9 -2 5 28 64 67 131 38 68 70 126 70 129 0 12 33 43 46 43 7 0 16
-10 19 -21z m1413 9 c10 -14 35 -55 85 -148 16 -30 36 -62 43 -71 8 -8 17 -29
20 -47 l6 -31 -154 -3 c-176 -3 -188 -2 -188 18 0 12 93 184 147 272 15 25 26
28 41 10z m-323 -387 c-4 -14 -12 -33 -19 -41 -7 -8 -30 -46 -51 -85 -66 -123
-87 -155 -99 -155 -7 0 -22 19 -35 43 -32 62 -57 105 -69 119 -12 15 -72 133
-72 141 0 7 305 14 333 8 14 -3 17 -9 12 -30z m-945 13 c0 -8 -18 -46 -39 -82
-79 -135 -92 -158 -102 -184 -20 -52 -34 -38 -129 126 -44 76 -80 142 -80 147
0 5 78 9 175 9 153 0 175 -2 175 -16z m1424 8 c3 -5 -24 -59 -60 -121 -35 -63
-64 -116 -64 -118 0 -3 -9 -18 -21 -34 -19 -28 -49 -39 -49 -20 0 6 -34 68
-75 139 -41 71 -75 137 -75 146 0 14 19 16 169 16 94 0 172 -4 175 -8z m-1786
-99 c22 -38 51 -88 64 -113 14 -25 36 -62 48 -83 19 -32 21 -40 9 -48 -8 -5
-86 -8 -174 -6 -143 2 -160 4 -163 19 -2 10 5 30 16 45 11 16 32 51 46 78 15
28 31 57 36 65 5 8 21 36 35 63 15 26 31 47 36 47 4 0 26 -30 47 -67z m924 40
c10 -9 18 -20 18 -24 0 -4 32 -62 70 -129 39 -66 68 -125 65 -130 -10 -16
-330 -13 -343 3 -7 9 9 45 60 132 38 66 74 130 79 143 10 26 26 28 51 5z m510
-60 c23 -43 48 -87 55 -98 7 -11 18 -31 25 -45 6 -14 18 -33 26 -42 8 -10 12
-24 9 -33 -9 -21 -335 -23 -343 -1 -3 8 26 69 65 136 39 66 71 124 71 128 0
12 23 32 36 32 7 0 32 -35 56 -77z m451 45 c20 -40 76 -141 105 -188 32 -52
35 -59 28 -75 -8 -23 -334 -22 -343 0 -3 9 1 23 9 33 8 9 18 24 21 32 4 8 18
33 32 55 13 22 31 54 40 70 59 113 80 127 108 73z"/>
</g>
</svg>
